<svg id="Livello_1" data-name="Livello 1" xmlns="http://www.w3.org/2000/svg" viewBox="0 0 846.94 829.55"><defs><style>.cls-1{fill:#050505;}.cls-2{fill:#fff;}</style></defs><title>logo</title><path d="M144.82,219.27a19.15,19.15,0,0,1,.56,2.77c.53,9.67,5.13,17.63,10.57,25.23,3.6,5,7.56,9.81,10.75,15.07A57.87,57.87,0,0,1,175,291.61c0,.71.08,1.42.16,2.61a8.86,8.86,0,0,0,1.16-1.4,267,267,0,0,1,23.56-39.5c1.6-2.22,1.31-3.51-.37-5.49-3.29-3.86-7.06-7.66-9-12.18-2.22-5.12-2.76-11-3.88-16.56-1.25-6.13-2.22-12.32-3.54-18.43-.6-2.79-1.74-5.47-2.42-8.35,11.24,14.48,23.23,28.46,30.15,46.06a17.49,17.49,0,0,0,1.26-1.23c3.63-4.19,7.44-8.25,10.75-12.67,1.48-2,2.82-4.74,2.74-7.09-.33-10-1.14-19.9-1.91-29.84-.61-7.87-1.58-15.72-2.11-23.6-.44-6.71,1.83-12.71,6-17.95,5.46-6.94,13.56-6,17.42,2,.15.31.33.61.63,1.16,3.65-4.14,8-5.11,13-3.32a8.32,8.32,0,0,1,5.85,6.26c.47,2.18,1.65,3,3.59,2.61a39,39,0,0,0,6.48-1.77c4.6-1.72,6.18-1.23,8.25,3.12a21.43,21.43,0,0,1,1.75,4.84c.6,3.1,2.65,4.58,5.38,5.5,1,.34,2.08.63,3.09,1,6.72,2.67,8.9,6.61,7.55,13.77,6.07,2.85,8.06,7.82,7.12,14.26a2.55,2.55,0,0,0,.38,1.74c2.93,3.85,2.16,7.91,0,11.49a20.13,20.13,0,0,1-13.91,9.67A106.78,106.78,0,0,1,278.43,220c-9.81.29-19.29,1.87-28.33,5.76-8.32,3.57-16.66,7.13-24.93,10.83-10.33,4.6-17.76,12.38-23.68,21.82-2.89,4.6-6,9.1-8.92,13.66-.52.8-.91,1.68-1.69,3.13,3-2,5.29-3.66,7.73-5.15,5.35-3.28,11.44-3.89,17.47-4.68a36,36,0,0,0,16.69-6.8c7.88-5.73,15.45-11.75,21.22-19.74a13.77,13.77,0,0,1,2.23-2l.6.56c-1.21,1.71-2.33,3.48-3.64,5.11-3.39,4.2-3,9.58-4.66,14.33-2.46,7.1-4.86,14.25-7.77,21.17-2.48,5.9-7.56,9.37-13.29,11.87-7.48,3.27-15.24,4-23.39,3.4-8.33-.63-16.61.47-23.48,5.88a19.22,19.22,0,0,0-5.62,6.73,277.34,277.34,0,0,0-20,64,5.66,5.66,0,0,0,0,.81c2.82-3.65,5.44-7.21,8.23-10.61a59.37,59.37,0,0,1,30.86-19.89c9.87-2.72,19.84-5.06,29.73-7.73,3.75-1,7.39-2.46,11.08-3.7.71-.23,1.45-.37,2.18-.56l.26.65c-2.13,1.22-4.22,2.5-6.39,3.64-9.42,4.93-16.21,12.44-21.82,21.33-3.62,5.73-7.39,11.7-13.88,14.58-5.95,2.63-12.21,4.58-18.4,6.65A52.94,52.94,0,0,0,156.49,387c-4.82,4.58-5.3,9.85-5.68,15.48A306.71,306.71,0,0,0,159,496.91c1.1,4.52,1.57,9.19,2.33,13.79l-1.08.32c-1.16-2.67-2.49-5.28-3.45-8-4.49-13-12.58-23.32-22.74-32.33-9-8-17.69-16.36-28-22.74-3.68-2.29-7.61-4.16-11.41-6.25a2.81,2.81,0,0,1-1.22-1.26c12.61,2.71,22.83,9.87,33.23,17,10.64,7.33,18.73,16.74,26,27.35-.54-2.73-1.08-5.45-1.61-8.18a36.81,36.81,0,0,1-1-5.9c-.1-4.79-3-7.75-6-11.06-6.44-7.11-12.52-14.57-18.47-22.11-3.34-4.23-4-9.56-5.25-14.73-1.67-7.22-4.06-14.28-6.12-21.42a2.69,2.69,0,0,1,.14-1.71c10.86,12.26,24,22.51,31.18,37.83l.67-.24c0-.73.13-1.46.12-2.18,0-6.27.08-12.55-.22-18.81a64.34,64.34,0,0,0-1.61-10.47c-1.92-9-3.8-18-8.25-26.11-6-10.9-15-18.18-26.71-22.35A45.33,45.33,0,0,0,84.09,356c-1.12.25-2.26.36-3.57.56,1.75-4.06,17.81-6.32,27.11-3.92s16.83,8.21,25.14,13.29q-5.57-14.55-11.13-29.11a23.67,23.67,0,0,1-1.31-3c-1.19-5.24-5.21-6.53-9.66-6.47a45,45,0,0,0-12,1.61,38.4,38.4,0,0,1-21.46.3c-4.3-1.14-8.65-2.09-13-3.17a38.68,38.68,0,0,0-22,.44,15.09,15.09,0,0,1-4,.66c-.56,0-1.14-.56-1.71-.87a6.33,6.33,0,0,1,1.26-1.12c6.22-3.16,12.6-6,18.65-9.47A54,54,0,0,1,82.18,309a38.93,38.93,0,0,1,13.61,1.76c6.54,2.29,12.77,5.56,17.8,10.63a5,5,0,0,0,1.07.54c-.31-1.09-.48-1.89-.77-2.65-2.15-5.83-4.14-11.73-6.55-17.45-2.86-6.79-5.62-13.68-9.27-20.05-4.43-7.75-12-11.54-20.48-13.64a105.87,105.87,0,0,1-11-3.09c-5.07-1.88-6.95-7.06-4.28-11.48.8-1.33,2.36-2.19,3.91-3.57,0-4.36,1.61-6.35,6.64-7.26,1.6-.3,3.21-.54,4.83-.79a8.1,8.1,0,0,0,6.15-4.82c2.72-5.37,5.86-5.84,10.28-1.73a2.2,2.2,0,0,0,1.85.47c9.68-3.42,17.17,8.17,12.57,17.32a96.35,96.35,0,0,1-5,9.28c-4.33,6.67-5.22,13.06-1.44,20.64,5.13,10.28,9.11,21.14,13.62,31.74,3.87,9.1,7.8,18.17,11.69,27.26.73,1.71,1.36,3.47,2.14,5.46,1-4.14,1.5-8.12,3.07-11.61,1.7-3.81,4.34-7.23,6.74-10.7,1.68-2.44,3.63-4.69,5.49-7a14.88,14.88,0,0,1,1.56-1.37c-.08,1-.09,1.61-.19,2.16-.68,3.71-1.78,7.39-2,11.12a25.91,25.91,0,0,1-3.94,11.7c-2.21,3.83-4.66,7.53-6.75,11.42a5.78,5.78,0,0,0-.34,4.09c4.54,13.76,9.22,27.49,13.78,41,0-.29.22-1,.29-1.77a295,295,0,0,1,17-75.57,6.4,6.4,0,0,0-.63-5.67c-6-11.26-12.11-22.47-17.85-33.87-5.85-11.58-6.72-24-5.05-36.68,1-7.65,2-15.31,3-23,.11-.83.3-1.66.46-2.49ZM242.89,169l-.76-.24c.09-1,.11-2.08.26-3.11.39-2.79,1-5.56,1.24-8.36.32-3.4-.1-6.71-2.31-9.54-3.47-4.45-7.09-4.42-10.21.14-5,7.27-5.83,15.46-5.06,23.94.28,3.07.83,6.11,1.12,9.17.69,7.39,1.63,14.79,1.83,22.2.16,5.73-.66,11.5-1.07,17.62,4-6.11,6.34-12.8,8.49-19.52s4-13.53,5.93-20.3c-.53,13.59-2.62,26.82-8.39,39.33,6.67-3.89,12.78-8,19.37-11.15a37.43,37.43,0,0,1,21.27-3.44c-13.79,2.76-26,8.23-36.08,19.34,1.26-.4,1.87-.53,2.43-.77,12.62-5.47,25.91-7.39,39.55-7.77a54.17,54.17,0,0,0,13.4-1.73c6.07-1.74,10.9-5.38,12.25-12.14a11.05,11.05,0,0,0-.22-2.86c-6.66,3.84-13.15,4.83-16.37,2.27,2.09-.36,3.91-.58,5.68-1,6.34-1.53,8.7-5.33,8.72-10.75,0-3.29-4.13-7-6.75-6.25-7,1.89-14,3.71-21.26,5.63.4-.62.71-1.64,1.37-2a24.7,24.7,0,0,1,4.94-2.1c3.46-1.06,7-1.82,10.45-3,2.1-.71,4-1.94,3.7-4.7-.28-2.41-3-5.17-5.35-5.37s-4.56-1.12-5.8-3.4c-1.9-3.48-3.84-6.95-5.58-10.51-1.16-2.35-2.73-3.32-5.16-2.8-3.13.68-6.29,1.27-9.74,2a24.78,24.78,0,0,1-9.09,10.24,2,2,0,0,1,0-1.63c1.12-1.85,2.36-3.63,3.47-5.48a7.88,7.88,0,0,0-1.44-9.47,6.43,6.43,0,0,0-7.11-1.14c-2.39,1-4.16,2.56-4.38,5.63a72.67,72.67,0,0,1-1.82,10.18A12.17,12.17,0,0,1,242.89,169Zm-97.84,66c-.35,3-.54,5.26-.9,7.54A71.56,71.56,0,0,0,151.5,288c3.55,6.75,7.15,13.47,10.66,20.23,1.26,2.42,2.32,4.94,3.77,8a78.38,78.38,0,0,1,3.35-7.94c2.6-4.58,3.05-9.38,2.24-14.46-.39-2.5-.52-5.05-.83-7.58a64.32,64.32,0,0,0-11.55-29.59c-3.14-4.44-6.63-8.64-9.69-13.12C147.8,241.13,146.72,238.32,145.05,235Zm70.63,102.9c-2.83.61-5.74,1.21-8.64,1.87-9.64,2.19-19.16,4.77-27.84,9.69-9.86,5.58-17.12,13.83-23.38,23.06-2.93,4.32-2.65,9.38-3.5,14.86,1-.74,1.39-1.06,1.81-1.36,5.09-3.6,9.85-7.85,15.35-10.64,6.58-3.35,13.77-5.5,20.73-8.1a25.68,25.68,0,0,0,13-10.22C207.37,350.7,211.51,344.35,215.68,337.92Zm-35.93-42.06a30.76,30.76,0,0,0,3.15-1.56c6.06-4,12.85-5,19.94-5.09a148.84,148.84,0,0,0,17.29-1c2.86-.37,5.51-2.18,8.31-3.18A17.69,17.69,0,0,0,239,275c2.62-6.26,4.37-12.88,6.49-19.35.61-1.88,1.18-3.77,1.95-6.22-2.22,2-3.88,3.52-5.6,5-7.72,6.61-16,12.22-26.06,14.72-4.56,1.14-9.31,1.74-13.68,3.36C191.2,276.56,184.31,284.69,179.75,295.86ZM90.2,235.05a41.13,41.13,0,0,0-3.56,5.55c-1.63,3.75-4.1,5.32-8.2,5.15a15.23,15.23,0,0,0-5.53.79c-2.73,1-3.27,3.21-1.64,5.66.62.93,1.34,1.81,2,2.71l-.69.87c-.86-.51-1.75-1-2.55-1.55-2.08-1.51-3.38-1.26-4.56,1-1.68,3.16-.38,6.44,3.32,7.78a41.7,41.7,0,0,0,7.61,2,44,44,0,0,1,15.27,5.49c.52.29,1,.55,1.77.93-1.36-2.75-2.59-5.22-3.81-7.7l.8-.44,5.35,7.15c1.24-3.68,2.14-7.2,3.61-10.45s3.54-6.3,5.36-9.43c3.18-5.47.85-11.19-5.08-12.5-3-.67-4.25.43-4,3.48.11,1.49,0,3,0,4.49l-1,.12C93.07,242.73,93.88,238.24,90.2,235.05Zm24.73,91.13c-14.55-16.26-41-18.55-57.91-5.55,7.77,2.1,15.62,4.53,23.62,6.27a36.81,36.81,0,0,0,13.12.79C100.69,326.64,107.44,324.34,114.93,326.18Zm5.74,85.45c2,20.34,14,35.38,27.85,49.48-.83-5.1-1.73-10.22-3.64-14.91C139.41,432.82,130.32,421.85,120.67,411.63Zm68.47-205-.92.51c3,14.47,2.4,30.18,14.6,41.58,4.52-4.24,5-9.24,2.48-13.92C200.25,225.19,194.57,216,189.14,206.59Zm-47.2,119.12c-6.71,6.08-11.22,17.3-9.89,24.5A38.85,38.85,0,0,0,141.94,325.71Z"/><path d="M217.44,574.39c5.79-7,14-6.62,21.81-7.65,3.67-.49,7.3-1.34,10.9-2.19,2.7-.64,4.8.67,3.76,3-2.72,6.19-3.16,13.74-10.13,17.6-5,2.79-10.55,3.74-16.07,4.72-5.08.9-9.8,2.54-13.77,6-1.61,1.38-3,2.86-2.79,5.27,5.69-1.88,10.26-.41,10.57,3.46a33.07,33.07,0,0,0-5.06-.65,9.82,9.82,0,0,0-3.82,1c-1.27.58-1.62,1.43-.43,2.73,20.09,21.95,40.69,43.33,65.15,60.57,3.78,2.66,7.61,5.24,11.67,8-1.48-4.2-3.14-7.95-4.12-11.86a147.11,147.11,0,0,1-3.83-18.85c-1.46-12.76-8-22.77-16.12-32.08-6.18-7.09-12.77-13.92-16.17-23a6.83,6.83,0,0,1-.45-3.69,56.21,56.21,0,0,0,3.41,7,85.42,85.42,0,0,0,8.32,11.32c6.23,6.73,12.93,13,17.75,20.93a47.79,47.79,0,0,1,6.08,17.09c1.25,7.32,2.56,14.64,4.07,21.91a23.52,23.52,0,0,0,2.81,6.4c-.39-12.09,2.54-24.25-1.31-36.1-2-6.11-4.46-11.93-8.75-17-5.15-6.07-10.59-12.13-12.5-20.21a37.13,37.13,0,0,1-1.32-9.67c.44-12.3-2.85-23.2-10.54-32.95a72.54,72.54,0,0,1-8.34-13.71c-1.43-3-1.57-6.64-2.25-10a15.26,15.26,0,0,0-.59-2.87c-3.19,10.91-5.73,21.89-4.29,33.43l-.76.11a14.44,14.44,0,0,1-.46-1.89c-1.27-10.77.93-21.16,3.48-31.5.72-2.9,1.64-5.76,2.6-8.6a8.34,8.34,0,0,1,1.54-2.09,8.52,8.52,0,0,1,1,2.54c.17,3.8.05,7.61.27,11.4A23.12,23.12,0,0,0,253.34,545c3.86,5.27,7.45,10.75,11,16.26,5,7.88,6.41,16.78,6,25.85a34.16,34.16,0,0,0,8.3,24.12c8.06,9.67,13.29,20.6,14.39,33.12.59,6.72,0,13.57-.36,20.35a29.1,29.1,0,0,0,2.6,14,8.59,8.59,0,0,0,3.39,3.37C356,716,417.88,730.7,484.38,724.58c17.24-1.59,34.4-4.37,51.5-7.15,7-1.13,13.66-3.71,20.47-5.64,1.1-.31,2.17-.7,3.25-1.06l.39.78c-2.7,1.47-5.24,3.42-8.11,4.32-10,3.11-19.88,6.52-30.07,8.57a327.69,327.69,0,0,1-40.32,6.05,307.79,307.79,0,0,1-140.16-21.77c-9.42-3.82-18.58-8.3-27.74-12.72a14.94,14.94,0,0,0-11.85-.82c-6.13,2.15-12.39,4.08-17,9.16a12.17,12.17,0,0,1-4.45,2.6q6.62-13.83,21.75-16.37l-.2-.63c-1,0-2-.06-3-.07-13.42,0-26.44,2.72-39.46,5.61-9.75,2.16-19.63,3-29.29-.57a60.34,60.34,0,0,1-8.56-4.16c-5-2.82-10.19-4.25-15.94-3.05-1.33.28-2.7.34-4,.57-7.86,1.34-14.77-1.18-20.39-6.3-7.19-6.55-15.65-10.8-24.19-15-3.91-1.93-8-3.56-11.84-5.54-1.13-.58-1.88-1.91-2.8-2.9,1.1-.92,2.09-2.38,3.34-2.67A42,42,0,0,1,172.51,658c7.28,3.12,14.73,6.37,23,6,5.88-.28,11.8-.31,17.64-1,9.75-1.17,18.36,1.24,26.69,6.32,6.93,4.23,14.12,8.37,21.72,11.11,9.49,3.41,19.68,3.67,30.55,3.57-1.21-.85-1.76-1.27-2.33-1.63a340.89,340.89,0,0,1-39-29.23,32.68,32.68,0,0,0-8.39-5.4c-10.61-4.46-21.07-9.53-32.67-11-7-.89-14.08-1.33-21.13-1.91a7.45,7.45,0,0,0-2.07.44c.05-.57.1-1.15.14-1.73,8.25-.71,16.56-1.39,24.78,0s16.22,3.58,24.32,5.42c-2.81-3-5.84-6-8.65-9.22-5.32-6.09-10.52-12.28-15.76-18.43-1.67-2-2.77-1.94-4,.39a15.78,15.78,0,0,0-1.06,3.6c-.23.9-.39,1.81-.61,2.89-3-2.25-2.67-4.88,1.11-10.88-4.79-1.75-9.5-2.23-14.17,0a6.21,6.21,0,0,0-2.27,2.59c-4.64,8.07-11.25,13-20.85,12.81a25.08,25.08,0,0,1-6.92-1.16c-2.54-.79-2.63-2-1.07-4.18,2.39-3.27,4.57-6.68,6.88-10,1.32-1.92,2.71-3.79,3.67-5.12-5.81-.84-12.09-1.19-18.06-2.75a35.64,35.64,0,0,1-22.15-16.86c-3-5-6.06-9.91-9.39-14.66-1.7-2.42-4.14-4.3-6.05-6.58-.78-.93-1.72-2.57-1.38-3.37s2.17-1.54,3.32-1.51c2.87.07,5.73.58,8.75.94-2.63-7.17-4.84-14.26-4.17-22,.67-7.86,5.67-11.77,13.26-9.39,8.71,2.72,17.55,5.26,25.1,10.17.41-5.61.47-11.32,1.35-16.9a57,57,0,0,1,3.71-12.2c2-5,5.39-6.13,10.33-3.85,5.54,2.55,8.48,7.48,11.3,12.5.61,1.09,1.18,2.19,2,3.62,2.75-3.44,5.25-6.6,7.78-9.74a17.68,17.68,0,0,1,2.66-3c1.45-1.13,3-.91,3.89.81,2,4.12,3.91,8.32,6,12.74l5.5-6.78.72-.07a30.09,30.09,0,0,1,.13,3.14c-.27,4.76-2,10-.64,14.17,4.64,14,2.7,27.94,1.17,42,0,.42-.43.79-.66,1.18Zm81.78,114.13a22.53,22.53,0,0,0-11.16-2.92c-11.37-.33-22.78-.81-33.39-5.45-6-2.61-11.65-5.9-17.47-8.87-5.5-2.81-11-5.8-17.47-5.36s-12.89.62-19.29,1.34a43.57,43.57,0,0,1-20.62-2.49c-5.1-1.92-10.24-3.71-15.39-5.51-5.76-2-11.59-1.49-17.45-.45,2.7,1.47,5.48,2.6,8.17,3.91,9.94,4.82,20.22,9,28.49,16.75,5.76,5.44,12.84,7.48,20.67,5.22,7.14-2.07,13.55-.63,19.76,3.14s12.75,6.27,20.21,6.59c8.93.38,17.48-1.61,26.17-2.95,6.34-1,12.72-1.77,19.1-2.49C292.55,688.64,295.59,688.68,299.22,688.52ZM180.77,575.46l.55-.74c-3.45-2.26-7.06-4.32-10.32-6.83a95.84,95.84,0,0,1-9.24-8.33c-3-3-5.72-6.28-8.51-9.49s-5.33-6.29-8-9.44l.8-.67c2.78,3,5.47,6.18,8.38,9.09s6,5.8,9.18,8.44,6.78,5.14,10.23,7.63c8.32,6,8.33,6,10.71,5.79a11.84,11.84,0,0,0-1.12-.93c-11-6.92-17.39-17.16-20.9-29.44a4.24,4.24,0,0,0-1.85-2.45,151.06,151.06,0,0,0-15-6.88c-4.56-1.65-9.43-2.45-14.33-3.67-.22,5,4.43,7.46,4.28,12.19-3.33-2.82-4.31-7.25-8.88-8.41-.34,1.26-.7,2.35-.91,3.46-1.33,7.1.56,13.88,2.14,20.67a4.8,4.8,0,0,0,1.73,2.94c5.12,2.92,10.24,5.86,15.59,8.32,6.33,2.92,13.1,4.92,19.25,8.14,4.63,2.43,8.58,6.15,12.76,9.24.4-1.46.91-3.26,1.42-5.11-4.17-3.23-8.25-6.51-12.45-9.64s-8.56-6.3-13-9.25c-4.21-2.81-8.58-5.37-12.89-8l.65-1Zm7.5-5.16a21.35,21.35,0,0,0-.52-2.11,71.1,71.1,0,0,1-4.61-20.85c-.67-8.83-.12-17.39,4.86-25.17.51-.79.07-2.66-.56-3.61a71.3,71.3,0,0,0-6.85-9.13c-1.8-1.95-4.31-3.26-6.5-4.85l-.76.71L177,518.78l-.78.23c-1.58-4.47-3.16-8.93-4.83-13.63-3.26,2.83-3.91,6.68-5,10.21-.83,2.65-1.76,5.55-1.44,8.19.42,3.34,2,6.55,3.2,9.77,1,2.82,2.18,5.59,3.28,8.38l-.72.31-5.33-11.13a42.88,42.88,0,0,0,4.45,20.14c3.68,7.71,10.39,12.77,16.27,18.55C186.48,570.14,187.23,570.07,188.27,570.3Zm-10.18,26.57c-7.72-6.44-15.24-13.12-24.8-16.9-9.29-3.67-18.26-8-26.38-13.88-1.32-1-2.46-2.15-3.69-3.24l.47-.48a23.19,23.19,0,0,0,3.58,2.68c7.23,3.53,14.25,7.7,21.83,10.19A71.69,71.69,0,0,1,179.28,594c1.69,1.79,2.82,1.73,4.52.18a75.58,75.58,0,0,0-30.32-20.55c-8.35-3.13-16.7-6-24.31-10.85-2.91-1.84-6.61-2.42-9.95-3.57l-.28.79a8.34,8.34,0,0,0,1.12,1.48c4.81,4.06,8.19,9.23,11,14.73,7.95,15.44,20.52,23.49,37.87,24C172.3,600.33,175.7,600.35,178.09,596.87ZM199.88,518c-.3,3-.13,5.91-.9,8.49-4.17,13.88-4.76,27.73-.69,41.74.54,1.87,1.22,2.77,3.24,2.71,1.05-9,2.25-17.76,3.05-26.61.61-6.58.2-13.27,3-19.52a4.72,4.72,0,0,0,0-3.19c-1.53-4.55-3.23-9-5-13.88-1.09.81-1.63,1-1.9,1.45-3.3,5-6.74,9.85-9.78,15-3.45,5.78-5.89,11.88-5.93,18.9-.05,7.63,1.47,14.93,3.35,22.22,1.17,4.56,1.44,4.69,6.32,4-2.11-11-2.72-22.1.11-33.14,1.42-5.53,2.76-11.08,4.17-16.61A7.1,7.1,0,0,1,199.88,518ZM164.26,619.25c6.51,1.12,12.86.6,17.25-4.57s7.89-11.28,11.78-17l-.77-.67-9.85,10.42-.71-.65q4.77-6.06,9.56-12.11a98.85,98.85,0,0,0-10.76,4.64,16.39,16.39,0,0,0-8.34,8.16C170.51,612,168.16,616,164.26,619.25ZM201.08,592l.31.83c.78-.76,2-1.4,2.26-2.32.46-1.53-.39-2.54-2.2-2.45-.09,0-.59-1.69-.32-1.94,1.61-1.45,1.62-2.13-.68-2.56-.71-.13-1.27-1-1.9-1.56l1.49-1.71c.54-.64,1.06-1.28,1.41-1.7l-3.26-2.32,3.36-3L189,571.71c-.27,3.67-2.61,5.12-5,3.7-1,1.59-2.07,3.16-3,4.8-3,5.24-2.62,6.84,2.3,10.6,1.51-.24,2.26-3.75,4.06-1.4,1.57,2-.83,3-2.61,3.72l.39.62,5.39-1.61a17.61,17.61,0,0,1,.1-3.39c.07-.32,1.41-.77,1.59-.58a31.83,31.83,0,0,1,2.62,3.37,4.78,4.78,0,0,1,1.45-1,8.62,8.62,0,0,1,3.59-.74C200.3,589.81,200.66,591.19,201.08,592Zm11.17-3.13c3.85-5.73,8.74-8.76,14.76-8.23,10.33.9,15.73-6.15,22-11.9-5.58.53-11,1.49-16.51,1.45C224.49,570.1,213.39,579.82,212.25,588.83Zm-4.63-1.15c1.22-3.09,2.42-6.18,3.65-9.26,4.42-11.07,6-22.37,2.84-34.09a53.05,53.05,0,0,1-1.81-8.78c-.38-4-.29-8-.43-13-.61,1.48-1.18,2.24-1.21,3-.19,5.12-1.07,10.39-.21,15.34a58,58,0,0,1-2.21,29.43A28.28,28.28,0,0,0,207.62,587.68Zm43-19a2.23,2.23,0,0,0-.67.39c-6.27,7.29-12.73,13.79-23.64,13.5-6-.17-10,4.18-13.06,9.19,5.51-3.14,11.57-4.15,17.62-5.24a37.42,37.42,0,0,0,6.31-1.61c3.87-1.43,7.65-3.21,9.66-7.07C248.34,575,249.36,571.78,250.61,568.7ZM209,534.45l-1,.06-4,41.18.87.12c1.64-6.84,4-13.61,4.72-20.54S209.24,541.39,209,534.45Zm-.79,70.19c-.58-2.26-1.17-4.67-1.86-7a1.8,1.8,0,0,0-1-1.1c-3.15-.82-8.5,2-10,5.27Z"/><path d="M193.9,577.81l-4-.28c.52-1.14.81-2.5,1.65-3.31.47-.45,1.84,0,2.8.09C194.22,575.31,194.09,576.31,193.9,577.81Z"/><path d="M192.61,581.77c.89-1.86,1.45-3.76,3.73-3.36.34.05.76,2,.47,2.87C196,583.73,194.36,582.41,192.61,581.77Z"/><path d="M186,578.22c-.53,1.93-.91,3.3-1.29,4.66-.67-.23-1.92-.48-1.91-.68a16.38,16.38,0,0,1,.7-3.92A9.38,9.38,0,0,1,186,578.22Z"/><path d="M188.45,582c1.65,1.78,1.46,3.42.1,4.91a2,2,0,0,1-1.74-.35C186.09,584.74,186.08,583,188.45,582Z"/><path d="M199.79,584.45c-.64,1.33-.85,2.39-1.23,2.45a18.76,18.76,0,0,1-3.59,0c.34-.82.47-2.07,1.07-2.36C196.86,584.1,198,584.42,199.79,584.45Z"/><path d="M181.74,588.75c-.42-1.15-.84-2.3-1.25-3.46.86.19,2.1.1,2.5.63s.16,1.77.19,2.69Z"/><path class="cls-1" d="M618.44,690.31c68.76-39.86,121.45-106,144.2-181.72a318.1,318.1,0,0,0,2.24-175.11,310.69,310.69,0,0,0-21-55.16A315.84,315.84,0,0,0,626,149l-12.79-7.42c-4.36-2.31-8.76-4.52-13.13-6.81-4.45-2.14-9-4.14-13.43-6.21-1.11-.54-2.27-1-3.41-1.44l-3.43-1.37L572.92,123a310.29,310.29,0,0,0-57.07-15.57l-3.64-.67c-1.21-.25-2.44-.35-3.67-.53l-7.34-1-3.68-.49-1.83-.24-1.85-.15-7.39-.61c-2.46-.18-4.92-.44-7.39-.56l-7.41-.23-7.42-.23c-2.47,0-4.94,0-7.41,0a324,324,0,0,0-115.89,23.48q13.68-5.89,27.87-10.54t28.78-7.84q14.57-3.26,29.4-5.18c9.87-1.3,19.82-2,29.78-2.37a328,328,0,0,1,59.62,4,312.75,312.75,0,0,1,160,76.67A314.46,314.46,0,0,1,779.76,391.25l.54,7.49c.17,2.49.15,5,.23,7.49.09,5,.31,10,.12,15-.11,10-.88,20-1.94,29.92l-.92,7.44c-.31,2.48-.76,4.94-1.13,7.41s-.77,4.94-1.27,7.39L774,480.75l-1.68,7.31c-.29,1.21-.55,2.43-.86,3.64l-1,3.62c-.66,2.41-1.25,4.84-2,7.23l-2.18,7.17a313,313,0,0,1-98.66,147l-5.78,4.71c-1.94,1.56-3.94,3-5.91,4.55l-3,2.26-3,2.17c-2,1.43-4,2.91-6.09,4.3C635.61,680.32,627.1,685.46,618.44,690.31Z"/><path class="cls-2" d="M419.59,525.77c-3.82,0-7.18.21-10.5,0-9.94-.75-15-4.69-16.48-14.55a91.8,91.8,0,0,1-1-13.25q-.11-73.29,0-146.56a91.16,91.16,0,0,1,1.68-16.21,12.74,12.74,0,0,1,9.52-10.38,29.46,29.46,0,0,1,7.09-1.19c6.85-.19,13.7-.3,20.55-.12,2.88.08,4.36-1.65,6.44-3.23H350.74v2.36c2.14.17,4.17.25,6.17.5,7.67,1,12.46,5.14,13.91,12.72a75.08,75.08,0,0,1,1.43,13.77q.15,75.2,0,150.37a75,75,0,0,1-1.45,13.77c-1.36,7.1-5.82,11.36-13.07,12.46-2.34.36-4.72.55-7,.81v2.38h2.55c20.24,0,40.48-.06,60.71.07C416.63,529.46,418,528.31,419.59,525.77Z"/><path class="cls-2" d="M479.22,422.65c-.21.64-.31,1.06-.48,1.43-1.53,3.28-3,6.57-4.6,9.81-9.43,19.17-18.62,38.45-28.39,57.43A195.07,195.07,0,0,1,417.56,533c-7.91,8.77-16.68,16.31-28,20.36a46.44,46.44,0,0,1-36.43-1.54c-12.64-5.88-19.79-16.41-23.75-29.41-2.4-7.9-2.56-16-1.67-24.11,1.57-14.45,6.87-27.18,17.11-37.71a78.08,78.08,0,0,1,22.86-15.84c1.19-.57,1.83-1.17,1.64-2.54a23.91,23.91,0,0,1,0-2.88c-3.81,2-7.26,3.68-10.61,5.57-27.8,15.73-38.55,43-34.61,72a52.52,52.52,0,0,0,13.32,28.33c14.25,15.94,39.92,19.23,58.71,9.79a106.27,106.27,0,0,0,27.59-20.36c17.57-17.68,31.38-38.15,44-59.49a575.22,575.22,0,0,0,27.2-52.48,3.61,3.61,0,0,1,3.2-2.35c6.08-.83,12.17-1.65,18.23-2.68,13.33-2.26,26.47-5.25,39-10.58,10.18-4.34,19.26-10.21,26.31-18.88,7.65-9.41,11.39-20.39,12.7-32.27.46-4.22.56-8.47.79-12.71a1.8,1.8,0,0,0-1.92-2.1,1.86,1.86,0,0,0-2,2c0,.38,0,.77,0,1.14-.47,5.18-.67,10.39-1.47,15.51-2,13-7.81,24.16-18,32.79-8.68,7.36-18.83,12-29.66,15-9.64,2.64-19.47,4.57-29.26,6.61-4.82,1-9.73,1.52-14.81,2.29.19-.55.27-.85.39-1.12,4.09-9.49,8.27-18.94,12.25-28.48,4.68-11.22,9.2-22.53,13.76-33.81.16-.4.24-1.13,0-1.35-2-1.89-4-3.71-6.12-5.57a8,8,0,0,0-.58.77c-6.89,13.06-13.92,26.05-20.62,39.21-5.17,10.17-9.93,20.55-14.93,30.8a3,3,0,0,1-1.81,1.53c-5.21.7-10.45,1.23-15.67,1.86-14.58,1.78-29.2,3.37-43.74,5.45-8.27,1.18-16.4,3.21-24.61,4.8-1.3.25-1.91.77-1.73,2.14a21.47,21.47,0,0,1,0,2.43C422.52,427.94,450.83,425.84,479.22,422.65Z"/><path class="cls-2" d="M433.19,529.16a6.07,6.07,0,0,0,1,.2c13.18-.29,26.38-.24,39.54-1a127.66,127.66,0,0,0,42-9.83,96.45,96.45,0,0,0,35-24.08c14.18-15.58,21.39-34.23,23.77-54.9A117.51,117.51,0,0,0,573.41,404c-.2-1-.46-2.06-.74-3.32a74.4,74.4,0,0,1-18.24,9.91c-1.72.65-2,1.49-2,3.18.11,7.53.29,15.08,0,22.6A110.51,110.51,0,0,1,544.06,475a75.25,75.25,0,0,1-27.24,33.91c-15.36,10.5-32.74,15-51,16.34-9.1.68-18.26.63-27.39.59C435.72,525.81,434.5,527.14,433.19,529.16Z"/><path class="cls-2" d="M452,323.18c.25.16.34.27.44.27.44,0,.89,0,1.33.05a133.92,133.92,0,0,1,37.46,5.62c12.77,4,24.32,10.05,34.12,19.28,13.67,12.88,21.13,29,24.81,47.17.37,1.78.69,3.56,1.06,5.5a63.47,63.47,0,0,0,17.68-10.18,2.11,2.11,0,0,0,.32-1.95,133.88,133.88,0,0,0-5.58-12.68c-11.66-21.52-29.5-36.09-51.83-45.49-15.41-6.48-31.57-9.54-48.21-10.58A18.61,18.61,0,0,0,452,323.18Z"/><path d="M419.59,525.77c-1.56,2.54-3,3.69-5.62,3.68-20.23-.13-40.47-.07-60.71-.07h-2.55V527c2.3-.26,4.68-.45,7-.81,7.25-1.1,11.71-5.36,13.07-12.46A75,75,0,0,0,372.25,500q.15-75.18,0-150.37a75.08,75.08,0,0,0-1.43-13.77c-1.45-7.58-6.24-11.75-13.91-12.72-2-.25-4-.33-6.17-.5v-2.36h86.18c-2.08,1.58-3.56,3.31-6.44,3.23-6.85-.18-13.7-.07-20.55.12a29.46,29.46,0,0,0-7.09,1.19,12.74,12.74,0,0,0-9.52,10.38,91.16,91.16,0,0,0-1.68,16.21q-.19,73.28,0,146.56a91.8,91.8,0,0,0,1,13.25c1.46,9.86,6.54,13.8,16.48,14.55C412.41,526,415.77,525.77,419.59,525.77Z"/><path d="M479.22,422.65c-28.39,3.19-56.7,5.29-84.65,12.39a21.47,21.47,0,0,0,0-2.43c-.18-1.37.43-1.89,1.73-2.14,8.21-1.59,16.34-3.62,24.61-4.8,14.54-2.08,29.16-3.67,43.74-5.45,5.22-.63,10.46-1.16,15.67-1.86a3,3,0,0,0,1.81-1.53c5-10.25,9.76-20.63,14.93-30.8,6.7-13.16,13.73-26.15,20.62-39.21a8,8,0,0,1,.58-.77c2.07,1.86,4.14,3.68,6.12,5.57.23.22.15.95,0,1.35-4.56,11.28-9.08,22.59-13.76,33.81-4,9.54-8.16,19-12.25,28.48-.12.27-.2.57-.39,1.12,5.08-.77,10-1.29,14.81-2.29,9.79-2,19.62-4,29.26-6.61,10.83-3,21-7.6,29.66-15,10.17-8.63,15.94-19.74,18-32.79.8-5.12,1-10.33,1.47-15.51,0-.37,0-.76,0-1.14a1.86,1.86,0,0,1,2-2,1.8,1.8,0,0,1,1.92,2.1c-.23,4.24-.33,8.49-.79,12.71-1.31,11.88-5.05,22.86-12.7,32.27-7,8.67-16.13,14.54-26.31,18.88-12.51,5.33-25.65,8.32-39,10.58-6.06,1-12.15,1.85-18.23,2.68a3.61,3.61,0,0,0-3.2,2.35,575.22,575.22,0,0,1-27.2,52.48c-12.63,21.34-26.44,41.81-44,59.49A106.27,106.27,0,0,1,396.1,555c-18.79,9.44-44.46,6.15-58.71-9.79a52.52,52.52,0,0,1-13.32-28.33c-3.94-29,6.81-56.26,34.61-72,3.35-1.89,6.8-3.58,10.61-5.57a23.91,23.91,0,0,0,0,2.88c.19,1.37-.45,2-1.64,2.54a78.08,78.08,0,0,0-22.86,15.84c-10.24,10.53-15.54,23.26-17.11,37.71-.89,8.14-.73,16.21,1.67,24.11,4,13,11.11,23.53,23.75,29.41a46.44,46.44,0,0,0,36.43,1.54c11.33-4,20.1-11.59,28-20.36a195.07,195.07,0,0,0,28.19-41.63c9.77-19,19-38.26,28.39-57.43,1.59-3.24,3.07-6.53,4.6-9.81C478.91,423.71,479,423.29,479.22,422.65Z"/><path d="M433.19,529.16c1.31-2,2.53-3.35,5.25-3.34,9.13,0,18.29.09,27.39-.59,18.25-1.37,35.63-5.84,51-16.34A75.25,75.25,0,0,0,544.06,475a110.51,110.51,0,0,0,8.35-38.64c.3-7.52.12-15.07,0-22.6,0-1.69.29-2.53,2-3.18a74.4,74.4,0,0,0,18.24-9.91c.28,1.26.54,2.28.74,3.32a117.51,117.51,0,0,1,1.09,35.61c-2.38,20.67-9.59,39.32-23.77,54.9a96.45,96.45,0,0,1-35,24.08,127.66,127.66,0,0,1-42,9.83c-13.16.73-26.36.68-39.54,1A6.07,6.07,0,0,1,433.19,529.16Z"/><path d="M452,323.18a18.61,18.61,0,0,1,11.6-3c16.64,1,32.8,4.1,48.21,10.58,22.33,9.4,40.17,24,51.83,45.49a133.88,133.88,0,0,1,5.58,12.68,2.11,2.11,0,0,1-.32,1.95,63.47,63.47,0,0,1-17.68,10.18c-.37-1.94-.69-3.72-1.06-5.5-3.68-18.14-11.14-34.29-24.81-47.17-9.8-9.23-21.35-15.32-34.12-19.28a133.92,133.92,0,0,0-37.46-5.62c-.44,0-.89,0-1.33-.05C452.36,323.45,452.27,323.34,452,323.18Z"/><path d="M592.41,274.14a6.56,6.56,0,0,0-6.51-6.6c-5.83-.38-11,1.63-15.69,4.81-7.58,5.12-13.4,12-18.68,19.32a5.48,5.48,0,0,1-3.86,2.64c-13.65,2.08-27.29,4.21-40.91,6.47-16,2.67-31.88,5.93-47.13,11.68-8.95,3.36-17.45,7.56-24.84,13.74-12.86,10.76-18.47,24.47-16.34,41.15a26.43,26.43,0,0,0,8.39,16.43c1,.94,2.17,1.27,3.21.28s.7-2.17-.33-3.12c-5.31-4.92-7.56-11.24-7.76-18.23a39.55,39.55,0,0,1,11.51-29.83c7.06-7.23,15.8-11.79,25-15.59a181.45,181.45,0,0,1,37.27-10.4c14.46-2.6,29-4.81,43.49-7.18,2.37-.39,4.75-.73,7.29-1.11L524.7,334l6.29,3.72c1.82-3.94,3.52-7.69,5.28-11.41,4.46-9.47,9-18.89,15.14-27.43a4.68,4.68,0,0,1,2.51-1.65c5.22-1.29,10.53-2.28,15.72-3.65,6.08-1.62,12-3.69,17.05-7.66C590.5,283,592.68,279.13,592.41,274.14Zm-4,1.82a11.06,11.06,0,0,1-4.61,7.14c-4.71,3.54-10.21,5.25-15.75,6.82-4.13,1.17-8.33,2.08-12.5,3.1,6.42-8,12.71-16.13,22.34-20.44a18.06,18.06,0,0,1,6.91-1.5C587.77,271,588.93,273,588.41,276Z"/></svg>